<?xml version="1.0" standalone="no"?>
<!DOCTYPE svg PUBLIC "-//W3C//DTD SVG 20010904//EN"
 "http://www.w3.org/TR/2001/REC-SVG-20010904/DTD/svg10.dtd">
<svg version="1.0" xmlns="http://www.w3.org/2000/svg"
 width="692.000000pt" height="692.000000pt" viewBox="0 0 692.000000 692.000000"
 preserveAspectRatio="xMidYMid meet">
<metadata>
Created by potrace 1.14, written by Peter Selinger 2001-2017
</metadata>
<g transform="translate(0.000000,692.000000) scale(0.100000,-0.100000)"
fill="#000000" stroke="none">
<path d="M990 3463 l0 -3458 2443 2 c1343 1 2456 2 2472 2 l30 1 3 1470 2
1471 -23 22 c-23 22 -254 238 -317 297 -55 51 -287 268 -365 341 -38 37 -110
104 -160 150 -49 46 -114 108 -145 137 l-55 52 265 261 c146 144 385 379 531
523 l265 261 0 963 -1 962 -924 0 -923 0 -269 -267 c-149 -148 -273 -269 -277
-271 -4 -1 -6 119 -5 268 l1 270 -1274 0 -1274 0 0 -3457z m1042 1940 l3
-1068 828 0 827 0 358 362 c196 199 599 606 895 904 514 518 537 540 538 508
0 -19 1 -233 1 -476 l1 -442 -135 -138 c-75 -76 -168 -172 -208 -213 -40 -41
-197 -203 -349 -360 -153 -157 -328 -337 -389 -400 l-111 -115 596 -597 596
-596 -1 -449 c0 -246 -1 -460 -1 -476 -1 -24 -115 86 -897 869 l-896 896 -826
0 -827 0 -5 -1563 -5 -1564 -310 0 -310 0 0 2993 0 2992 312 0 313 0 2 -1067z
m1078 490 l1 -578 565 568 565 568 217 -1 c474 -3 692 -7 697 -11 5 -5 -68
-82 -505 -529 -168 -171 -352 -360 -410 -420 -58 -59 -239 -246 -404 -414
l-299 -306 -533 0 -534 0 0 850 0 850 320 0 320 0 0 -577z m-62 -2702 l62 -1
0 -1055 c0 -580 3 -1055 8 -1056 4 0 540 -2 1192 -3 652 -2 1188 -3 1192 -4 9
-3 9 -582 0 -583 -20 -4 -3009 -5 -3019 -1 -10 3 -13 283 -13 1352 l0 1349 28
3 c22 2 200 2 550 -1z m858 -377 c171 -176 353 -362 404 -414 50 -52 218 -225
373 -384 356 -365 476 -490 477 -496 0 -7 -1609 -4 -1617 3 -4 5 -8 1540 -4
1649 1 14 6 12 29 -11 15 -16 167 -172 338 -347z"/>
</g>
</svg>
